<?xml version="1.0" standalone="no"?><!DOCTYPE svg PUBLIC "-//W3C//DTD SVG 1.1//EN" "http://www.w3.org/Graphics/SVG/1.1/DTD/svg11.dtd"><svg t="1722176162819" class="icon" viewBox="0 0 1024 1024" version="1.1" xmlns="http://www.w3.org/2000/svg" p-id="9934" xmlns:xlink="http://www.w3.org/1999/xlink" width="200" height="200"><path d="M533.674962 141.876904l-79.232856 318.038698c-26.412304 106.006139-134.766835 171.140536-240.772974 144.736343-106.018307-26.420416-171.140536-134.762779-144.732288-240.77703l79.232856-318.038697 385.505262 96.040686z" fill="#FFCB63" p-id="9935"></path><path d="M193.99375 599.736142l39.35482 9.807271-87.73817 352.080232-39.35482-9.807272z" fill="#6E6E96" p-id="9936"></path><path d="M53.771671 917.827567l154.190748 38.409785-9.803215 39.35482-154.190748-38.409785z" fill="#6E6E96" p-id="9937"></path><path d="M148.177812 45.864609l385.468758 96.016351-51.818734 208.017174-385.468758-96.020406z" fill="#F0F0FF" p-id="9938"></path><path d="M481.848116 370.198131c-1.638601 0-3.285314-0.198741-4.89958-0.600279L91.459498 273.569333a20.271606 20.271606 0 0 1-14.775802-24.579017L128.50243 40.965029a20.271606 20.271606 0 0 1 24.579018-14.775802l385.489038 96.024463a20.279718 20.279718 0 0 1 14.775802 24.579017l-51.818734 208.025286a20.271606 20.271606 0 0 1-19.679438 15.380138zM120.942151 239.118149l346.130163 86.221247 42.015519-168.66641-346.134219-86.225303-42.011463 168.670466z" fill="#6E6E96" p-id="9939"></path><path d="M447.311757 120.368235L368.078901 438.406933c-22.713284 91.165442-106.042643 152.04921-196.356337 150.516063a197.44333 197.44333 0 0 0 41.942512 15.733005c106.010195 26.408248 214.364726-38.730205 240.772974-144.736344l79.232856-318.038697-86.359149-21.512725z" fill="#6E6E96" opacity=".15" p-id="9940"></path><path d="M287.089821 575.384257c-89.660687-22.344193-143.308652-119.747676-119.212291-216.469761l72.285025-290.158142-91.992855-22.920136L68.936844 363.874915c-26.408248 106.014251 38.713981 214.36067 144.732288 240.77703 60.985166 15.189508 122.720683 0.040559 169.209907-35.712582-30.058597 11.640558-63.142928 14.568949-95.789218 6.444894z" fill="#FFFFFF" opacity=".3" p-id="9941"></path><path d="M514.9 137.204457L435.667143 455.239099c-23.901675 95.931176-121.386277 154.539559-217.321508 130.64194-95.931176-23.905731-154.531447-121.394389-130.633829-217.329621l79.232857-318.038698a19.346851 19.346851 0 0 1-23.451466 14.09846l385.505262 96.040686a19.346851 19.346851 0 0 1-14.098459-23.447409zM129.398794 41.159715L50.161881 359.198412c-29.056779 116.632711 42.19398 235.16766 158.830748 264.22444 116.632711 29.056779 235.163604-42.189924 264.228495-158.826692l79.228801-318.038697a19.338739 19.338739 0 0 0-14.09846-23.451466L152.850259 27.061255a19.350906 19.350906 0 0 0-23.451465 14.09846z" fill="#6E6E96" p-id="9942"></path><path d="M191.831932 104.180965l39.35482 9.807271-34.617478 138.928233-39.35482-9.807271z" fill="#FFFFFF" p-id="9943"></path><path d="M146.462148 286.284716l39.35482 9.807272-12.163775 48.817336-39.35482-9.807272z" fill="#FFFFFF" opacity=".67" p-id="9944"></path><path d="M813.567511 74.227822l79.232857 318.038698c26.412304 106.014251-38.718037 214.36067-144.736344 240.77703-106.006139 26.408248-214.36067-38.730205-240.768918-144.736344L428.062249 170.268508l385.505262-96.040686z" fill="#FF9CE3" p-id="9945"></path><path d="M767.751573 628.079075l87.701667 352.084288-39.35482 9.803215-87.701666-352.084288z" fill="#6E6E96" p-id="9946"></path><path d="M908.0061 946.235395l9.807271 39.35482-154.194804 38.426009-9.807271-39.35482z" fill="#6E6E96" p-id="9947"></path><path d="M865.365966 282.285556l-385.468759 96.020406-51.814678-208.013118 385.468758-96.020407z" fill="#F0F0FF" p-id="9948"></path><path d="M479.840424 398.589736a20.291885 20.291885 0 0 1-19.663214-15.380138L408.358476 175.184312a20.279718 20.279718 0 0 1 14.775802-24.579018l385.484982-96.024462a20.275662 20.275662 0 0 1 24.579018 14.775802l51.814678 208.025286a20.279718 20.279718 0 0 1-14.775802 24.579018l-385.484982 96.024462a20.251326 20.251326 0 0 1-4.911748 0.604336z m-27.223493-213.533258l42.015519 168.666411 346.126106-86.217191-42.011462-168.666411-346.130163 86.217191z" fill="#6E6E96" p-id="9949"></path><path d="M514.425454 148.75984l79.232857 318.038698c22.713284 91.165442 106.042643 152.04921 196.35228 150.516063a197.44333 197.44333 0 0 1-41.942511 15.733005c-106.010195 26.408248-214.364726-38.730205-240.772974-144.736344L428.062249 170.268508l86.363205-21.508668z" fill="#6E6E96" opacity=".15" p-id="9950"></path><path d="M674.651446 603.775862c89.656631-22.344193 143.304596-119.747676 119.216348-216.469761l-72.285025-290.158142 91.99691-22.920137 79.2288 318.038698c26.408248 106.014251-38.718037 214.36067-144.732287 240.77703-60.985166 15.189508-122.728794 0.040559-169.213963-35.712583 30.054541 11.640558 63.138872 14.568949 95.789217 6.444895z" fill="#FFFFFF" opacity=".3" p-id="9951"></path><path d="M432.734696 189.043471l385.505262-96.040686a19.346851 19.346851 0 0 1-23.451465-14.09846l79.232856 318.038698c23.905731 95.931176-34.702653 193.42389-130.629772 217.32962-95.935232 23.897619-193.419834-34.710764-217.321509-130.64194l-79.232856-318.034642a19.346851 19.346851 0 0 1-14.102516 23.44741z m376.148201-133.590611l-385.501207 96.044742a19.346851 19.346851 0 0 0-14.098459 23.451465l79.2288 318.038698c29.060835 116.636767 147.59984 187.883471 264.228496 158.826691 116.632711-29.052723 187.883471-147.591728 158.830747-264.224439L832.334362 69.551319a19.346851 19.346851 0 0 0-23.451465-14.098459z" fill="#6E6E96" p-id="9952"></path><path d="M769.921503 132.560401l34.617478 138.924177-39.35482 9.807272-34.617478-138.924177z" fill="#FFFFFF" p-id="9953"></path><path d="M815.299399 314.668209l12.167831 48.81328-39.35482 9.807271-12.167831-48.81328z" fill="#FFFFFF" opacity=".67" p-id="9954"></path></svg>